<?xml version="1.0" encoding="utf-8"?>
<!-- Generator: Adobe Illustrator 25.2.1, SVG Export Plug-In . SVG Version: 6.00 Build 0)  -->
<svg version="1.1" id="Camada_1" xmlns="http://www.w3.org/2000/svg" xmlns:xlink="http://www.w3.org/1999/xlink" x="0px" y="0px"
	 viewBox="0 0 2805 698" style="enable-background:new 0 0 2805 698;" xml:space="preserve">
<style type="text/css">
	.st0{fill:#CCDFAA;}
	.st1{fill:#0E632F;}
	.st2{fill:#FAE91F;}
	.st3{fill:#201E43;}
	.st4{fill:#C41A18;}
	.st5{fill:#DDE9C7;}
	.st6{fill:#FFFFFF;}
	.st7{fill:#9FC761;}
	.st8{fill:url(#SVGID_1_);}
	.st9{fill:url(#SVGID_2_);}
	.st10{fill:url(#SVGID_3_);}
	.st11{fill:url(#SVGID_4_);}
	.st12{fill:url(#SVGID_5_);}
	.st13{fill:url(#SVGID_6_);}
	.st14{fill:#BFD895;}
	.st15{fill:#B3D180;}
	.st16{fill:#7F867A;}
</style>
<path class="st0" d="M273.3,70.4c-0.3,0.4-0.6,0.4-1,0.3C272.5,70.4,272.9,70.3,273.3,70.4z"/>
<path class="st0" d="M274.6,70c-0.2,0.1-0.4,0.2-0.5,0.3C274.3,70.2,274.4,70.1,274.6,70z"/>
<g>
</g>
<g>
	<path class="st1" d="M537.5,500.9c-11.3,24.3-25.5,46.9-42.3,67.8c-22.1,27.5-47.7,51.1-78.2,69c-22.4,13.2-46.3,22.5-71.9,27.7
		c-19.2,3.9-38.7,5.6-58.2,5.1c-38.2-1.1-74.4-10.1-108.2-28.5c-25.2-13.7-47.3-31.3-67-52c-18.7-19.6-34.9-41-48.4-64.5
		c-0.3-0.5-0.5-1-0.8-1.5c17.5,4.1,35.2,3.9,53,3.6c2.2,0.7,4.2,1.6,6,3.1c0.2,0.3,0.3,0.7,0.6,1c14.1,18,29.8,34.4,48,48.3
		c4.8,3.7,9.5,7.5,14.9,10.3c5.7,4.1,11.8,7.3,18,10.5c1.1,0.6,1.5,0.3,1.7-0.8c0.4-2.5,0.8-5.1,1.2-7.6c1.7-11.3,3-22.7,4.2-34.1
		c1.2-11.9,2.5-23.9,3.1-35.9l0,0c0.2-0.1,0.4-0.3,0.6-0.4c7.9-1,15.7-2.5,23.6-3.7c4.5-0.7,9-2.1,13.7-2.1
		c0.4,8.1,0.8,16.3,1.3,24.4c0.8,15.1,1.9,30.2,3.2,45.2c0.9,10.4,1.9,20.7,2.7,31.1c0.1,1.9,0.9,2.4,2.5,2.6
		c9.3,1.3,18.6,2.2,27.9,2.5c0.2,1.4,1.3,0.9,2,0.9c7.5-0.2,15,0.3,22.6-0.7c5.2-0.7,10.4-1.6,15.6-2.4c1.5-0.2,3.2-0.4,4.6-1.4
		c2.3,0.1,4.5-0.7,6.8-1.2c7.7-1.6,15.1-3.9,22.5-6.5c3.5-1,6.8-2.4,10.1-3.7c14.2-5.8,27.5-13.3,39.9-22.3
		c17.2-11.9,32.2-26.3,45.8-42.2c0.2-0.2,0.3-0.3,0.5-0.5l0,0c0.1-0.2,0.3-0.3,0.4-0.5c0.4-0.5,0.7-0.9,1.1-1.4
		c0.4-0.4,0.9-0.7,1.2-1.2c13.1-16.3,24.7-33.5,34.2-52.2c0.4-0.9,0.6-2.1,2-2c4.4,1.6,8.9,3.1,13.3,4.8
		C519.9,493,529,496.3,537.5,500.9z"/>
	<path class="st2" d="M537.5,500.9c-8.5-4.6-17.5-8-26.6-11.3c-4.4-1.6-8.8-3.2-13.3-4.8c-3.5-1.1-7-2.2-10.4-3.3
		c-3-1-5.9-2-8.9-2.9c-3.9-1.2-7.7-2.4-11.7-3.4c-3.3-0.8-6.3-2.4-9.8-2.4l0,0c-0.4-0.6-0.9-0.4-1.5-0.5c-3.3-1.8-7.1-2.3-10.7-3.2
		c-2.8-0.7-5.5-1.7-8.4-2c-2.9-0.4-5.7-0.9-8.5-1.8c-3.2,0-6.2-1-9.4-1.4c-3.4-0.4-6.7-1.8-10.2-1.5c-1.3-0.4-2.6-0.9-3.9-1.1
		c-8.6-1.1-17.1-2.2-25.7-3.1c-14.2-1.5-28.4-2.6-42.6-3.5c-6.4-0.4-12.8-0.7-19.1-1c-9.1-0.6-18.3-0.2-27.4-0.8
		c-13.8-0.9-27.7-0.2-41.6-0.3c-7.6,0-15.2-0.1-22.7,0.1c-2.6,0.1-5.4-0.6-8,0.8c-2.5-0.1-5-0.6-7.5-0.7c-6.9-0.4-13.9-0.1-20.9-0.1
		c-4.9-0.5-9.7,0.8-14.5,0.7c-5.1-0.1-9.9,1.4-15,1.2c-0.2,0-0.5,0-0.7,0.1c-3.4,1.1-7,1-10.4,1.7c-2.8,0.6-5.8,0.6-8.4,1.9
		c-4.5-0.1-8.7,1.5-13,2.2c-2.8,0.5-5.7,1.1-8.5,2c-2.9,1-5.9,1.5-8.8,2.5c-3.8,1.2-7.6,2.4-11.4,3.5c-3.9,1.1-7.6,2.8-11.7,3.5
		c-1.1,0.3-2.2,0.6-3.2,0.9c-9.6,3.3-18.6,7.8-24.8,16.2c-3.6,4.8-7.5,9.6-6.9,16.2c-0.6,0.3-1.4,0.4-1.6,1.3
		c-0.7,3.7-1.5,7.5-1.3,11.3c-3.4-1.3-6.1-3.7-9-5.7c-9.7-6.8-18.8-14.4-25.9-24.1c-5.7-7.8-9.2-16.4-8.1-26.3
		c0.8-7.3,4.2-13.4,8.7-19c5.6-7,12.5-12.3,20.2-17c10.9-6.6,22-12.5,33.7-17.4c7-2.9,14.1-5.5,21.3-7.7c6-1.8,12.1-3.4,18.4-4.2
		c4.8-0.7,9.6-1.3,14.4-1.9c8-1.1,16.1-2.2,24.1-2.9c8.8-0.8,17.7-1.4,26.5-1.8c11.7-0.6,23.4-0.5,35.1-0.3
		c9.6,0.1,19.2,0.8,28.7,1.6c5.3,0.5,10.6,1,15.8,1.9c4.7,0.8,9.4,1.4,14,2.4c2.6,0.5,5.3,1,8,1.4c4.3,0.5,8.5,1.6,12.7,2.5
		c2,0.4,4.1,0.7,6.1,1.1c6.2,1.2,12.3,2.6,18.5,3.8c3.7,0.7,7.4,1.5,11.1,2.3c3.5,0.8,7.1,1.5,10.6,2.4c3.2,0.9,6.6,1.4,9.9,2.2
		c3.2,0.8,6.4,1.7,9.6,2.5c3.1,0.8,6.3,1.5,9.4,2.3c4.4,1.1,8.8,2.3,13.2,3.5c2.9,0.8,5.8,1.5,8.7,2.2c2.9,0.7,5.8,1.4,8.7,2.2
		c3,0.8,6,1.7,9,2.6c3.8,1.2,7.6,2.4,11.4,3.5c3.6,1.1,7.2,2.1,10.8,3.2c3.6,1.1,7.1,2.3,10.7,3.5c3.3,1.1,6.7,2.1,10,3.3
		c5.2,1.8,10.3,3.6,15.5,5.4c4.7,1.7,9.4,3.4,14,5.2c6.1,2.3,12.2,4.7,18.3,7.1c5.4,2.1,10.9,4.2,16.3,6.4
		c6.1,2.4,12.1,4.9,18.2,7.3c4.6,1.8,9.3,3.5,14,5.2c1.1,1.3,2.6,1.6,4.2,1.8c0.5,0.3,0.9,0.6,1.4,0.9c3.7,4.9,7.3,9.9,8.8,16
		c1.1,4.5-0.7,9.4-4.6,11.8c-1,0.7-2,0.5-2.8-0.1C544.8,504.7,541.1,502.9,537.5,500.9z"/>
	<path class="st3" d="M527.6,339.3c3.2-1.9,5.9-4.4,8.6-7c8.9-8.3,16.8-17.3,21.7-28.7c4.4-10.2,6.1-20.8,3.8-31.8
		c-0.1-0.3,0-0.6,0-1c5.1,0.2,10.1,1.6,15,2.9c11.7,2.9,22.9,7,32.6,14.4c12.1,9.2,17,21.4,14.2,36.3c-1.2,6.8-5,12.6-8.9,18.2
		c-8,11.7-18.3,21.2-29.1,30.2c-25.4,21-53.4,37.9-82.9,52.4c-10.9,5.4-22.1,10.3-33.4,14.9c-0.5,0.2-0.9,0.5-1.4,0.7
		c0.4,1.3,1.7,1.5,2.7,3.1c-24.9-9.7-49.7-17.8-74.5-25.6c11.9-5.7,24.1-10.9,35.7-17.2c14.7-7.5,29.1-15.4,42.9-24.5
		c3.2-1.5,6-3.6,8.9-5.5c11.5-7.3,22.4-15.4,33.5-23.4C520.7,345.1,524.5,342.6,527.6,339.3z"/>
	<path class="st1" d="M190,381.4c-6.1-14.2-7.8-29.3-8.4-44.5c-0.9-23.1,0.7-46.1,3.3-69c1.3-11.5,2.7-23.1,4.4-34.5
		c0.1-0.6,0.1-1.3,0.1-1.9c0.4-0.6,0.4-1.2,0.4-1.9c0.1-0.6,0.2-1.3,0.2-1.9c0.9-5,1.8-10.1,2.6-15.1c0.2-1.2,0.7-1.6,1.8-1.6
		c2,0.1,4,0.1,6,0c1.5-0.1,1.9,0.4,1.7,1.9c-1.3,14.4-2.2,28.9-2.6,43.4c-0.4,16.2-0.8,32.4-0.4,48.5c0.3,13.8,0.7,27.5,1.3,41.3
		c0.1,2.5,0.3,5,0.4,7.4c0.2,2.6,3.5,6.3,5.7,6.4c2.1,0.1,4.1-2.5,4.4-5.7c0.3-2.8,0.3-5.6,0.5-8.4c1.1-23,2.2-45.9,3.2-68.9
		c0.9-20.1,1.8-40.2,2.7-60.2c0.3-5.8,0.3-5.7,6.1-5.8c1.8,0,2.4,0.4,2.4,2.4c0.2,14.3,0.5,28.7,0.7,43c0.3,22.6,0.6,45.2,1,67.8
		c0.1,9.6,0.3,19.2,0.5,28.8c0.1,2.7,1.7,4.6,3.6,6.2c1.1,0.9,2.5,0.8,3.5-0.3c1.7-1.8,3-3.7,3.1-6.3c0.3-14.4,0.6-28.8,1-43.2
		c0.3-15,0.7-30,1-44.9c0.3-16.3,0.7-32.5,1-48.8c0.1-4.5,0-4.5,4.5-4.7c0.3,0,0.6-0.1,1-0.1c1.9-0.1,2.3,0.9,2.4,2.7
		c0.8,18.2,1.6,36.5,2.5,54.7c1.2,24.9,2.5,49.9,3.7,74.8c0.2,3.3,0.3,6.6,0.5,9.8c0.1,2.4,1.3,4.3,2.9,5.9c1.3,1.3,2.6,1,3.7-0.4
		c1.4-1.8,2.4-3.8,2.5-6.1c0.6-13.6,1.4-27.2,1.8-40.8c0.5-18.4,0.5-36.8,0.1-55.3c-0.3-14.3-1.2-28.6-1.8-42.9c0-0.8-0.9-2.4,1-2.2
		c1.5,0.2,3.8-1.3,4.4,1.7c1.2,5.8,2.6,11.5,3.8,17.3c4.2,20.1,6.8,40.4,8.1,60.9c1,17.4,0.8,34.7-0.7,52.1c-0.9,11-2.2,22-4.1,32.9
		c-0.7,3.9-2.1,7.7-3.1,11.6c-0.2,0.6-0.5,1-1.1,1c-18.2-3.6-36.7-5.4-55.2-6.4C208.5,381.4,199.3,381.8,190,381.4z"/>
	<path class="st3" d="M317,453.7c6.4,0.3,12.8,0.6,19.1,1c14.2,0.9,28.4,2,42.6,3.5c8.6,0.9,17.2,2,25.7,3.1
		c1.3,0.2,2.6,0.7,3.9,1.1c-0.6,0.8-1.6,1-2.5,1.4c-18,8.3-36.9,14.2-55.8,20.1c-24.3,7.6-48.9,14.2-73.7,19.8
		c-23.7,5.3-47.6,9.8-71.6,13.5c-14.2,2.2-28.5,4.4-42.8,5.9c-11.4,1.2-22.8,2.4-34.2,3.3c-4.1,0.3-8.3,0.1-12.3,1.2
		c-17.8,0.3-35.5,0.5-53-3.6c-4.8-1.5-9.5-3.1-13.7-5.9c-0.2-3.8,0.6-7.6,1.3-11.3c0.2-0.9,1-1,1.6-1.3c0.3,0.1,0.6,0.2,0.9,0.2
		c16.9-0.3,33.9,0.9,50.8-1.1c0.6,0.4,1.2,0.2,1.8,0.2c12.1-0.8,24.2-2,36.2-3.7c15.8-1.9,31.5-4.5,47.1-7.7c9-1.8,18-3.9,27-6.1
		c1.7-1.1,3.8-0.8,5.6-1.5c2.7-1,5.7-1.5,8.6-2.3c2.8-0.8,5.7-1.5,8.5-2.3c4-1.1,7.9-2.3,11.9-3.5c0.2,0,0.5,0,0.7-0.1
		c13.9-4.4,27.7-9,41.4-14C300.4,460.4,308.8,457.3,317,453.7z"/>
	<path class="st4" d="M431.8,401.2c-11.6,6.3-23.8,11.5-35.7,17.2c-11.8-3.3-23.7-6.7-35.5-10c1-4.8,3-9.4,4.5-14
		c2.9-8.8,5.9-17.6,8.9-26.4c0.2-0.6,0.4-1.2,0.1-1.9c0.3-0.5,0.8-1,0.9-1.6c1.7-6.1,4.1-12.1,6-18.1c3.2-9.8,6.6-19.5,9.7-29.3
		c1.9-6,4.1-12,6.3-18c0.8-2.2,1.7-1.6,2.9-0.8c1.9,1.3,3.1,3.1,4,5.2c1.6,3.4,1.6,7.1,2.4,10.7c0,5.1,0,10.2,0,15.3
		c-0.3,6.2-2.4,12.3-0.6,18.6c1.1,3.7,2,7.4,5.3,9.8c1.1,0.9,2.3,1.5,3.9,1.5c3.8-0.2,7-1.6,9.4-4.7c1.3-1.8,2.7-3.5,4.1-5.2
		c5.4-6.5,11.3-12.4,18.8-16.5c3.7-2,7.7-3,11.8-3.9c1.4-0.1,2.9-0.1,4.3-0.2c0.6,0.9,0.1,1.7-0.2,2.4
		c-8.4,18.5-16.8,37.1-25.2,55.6C435.9,391.6,433.4,396.2,431.8,401.2z"/>
	<path class="st1" d="M546.6,479.5c-0.5-0.3-0.9-0.6-1.4-0.9c-1.2-0.9-2.3-1.8-3.7-2.3c-10.1-6.6-20.9-11.9-31.9-17
		c-0.5-0.2-1-0.6-1.4-0.8c3-8.2,5.8-16.4,7.9-24.9c17.5-9.5,33.8-20.9,50-33.4C562.7,427.7,556.2,454,546.6,479.5z"/>
	<path class="st5" d="M541.5,476.2c1.4,0.5,2.5,1.4,3.7,2.3c-1.5-0.3-3.1-0.6-4.2-1.8C541.2,476.6,541.4,476.4,541.5,476.2z"/>
	<path class="st4" d="M333.2,618.5c-1.4,1-3.1,1.1-4.6,1.4c-5.2,0.8-10.4,1.7-15.6,2.4c-7.6,1-15.1,0.5-22.6,0.7
		c-0.7,0-1.9,0.5-2-0.9c0.2-0.6,0.5-1.2,0.7-1.8c4.3-12.7,8.5-25.4,12.8-38.2c6.6-19.6,13.2-39.2,19.7-58.8
		c2.9-8.8,5.8-17.6,8.7-26.4c0.7-0.3,1.4-0.7,2.2-0.9c10.2-2.8,20.4-5.6,30.6-8.5c11.2-3.2,22.3-6.6,33.5-9.9c0,0.2,0,0.5-0.1,0.7
		c-9.3,20.5-18.6,41-27.8,61.6c-2.4,5.4-5.2,10.7-7.2,16.4c-2.2,3.6-3.6,7.5-5.3,11.4C348.5,584.6,340.9,601.6,333.2,618.5z"/>
	<path class="st6" d="M187.9,525.8c-3.7,0.5-7.5,1.1-11.2,1.5c-3.8,0.3-7.5,1-11.2,1.6c-3.6,0.5-7.4,0.2-11,1.5
		c-1,0.4-2.2,0.2-3.3,0.2c-3.3,0.1-6.6,0.7-9.8,1.4s-6.6,0.3-9.8,1.4c-3.7,1.3-6.8-1.6-10.2-2.7c-1.8-1.4-3.9-2.4-6-3.1
		c4-1.1,8.2-0.9,12.3-1.2c11.4-0.9,22.8-2.1,34.2-3.3c14.3-1.5,28.6-3.7,42.8-5.9c24-3.7,47.9-8.2,71.6-13.5
		c24.9-5.6,49.4-12.2,73.7-19.8c18.9-5.9,37.8-11.8,55.8-20.1c0.9-0.4,1.8-0.6,2.5-1.4c3.5-0.3,6.8,1.1,10.2,1.5
		c3.1,0.4,6.2,1.5,9.4,1.4c0.3,1.6-0.2,2.6-2,3.1c-4.8,1.4-9.6,3.1-14.4,4.6c-4.9,1.6-9.8,3.1-14.8,4.7c-11.1,3.3-22.3,6.7-33.5,9.9
		c-10.2,2.9-20.4,5.7-30.6,8.5c-0.8,0.2-1.5,0.6-2.2,0.9c-3.3,0.2-6.3,1.4-9.5,2.2c-5.9,1.4-11.7,3-17.5,4.5
		c-4.5,1.2-9,2.4-13.5,3.5s-9.1,2.1-13.6,3.2c-3.4,0.8-6.8,1.7-10.2,2.4c-3.7,0.8-7.4,1.7-11.2,2.3c-1.4,0.2-2.8,0.4-4.1,1.1
		c-4.7,0-9.1,1.4-13.7,2.1c-7.9,1.2-15.7,2.7-23.6,3.7c-0.3,0-0.6,0.1-0.6,0.4l0,0c-1.7,0.1-3.3,0.4-5,0.5c-2.9,0.2-5.8,0.8-8.6,1.2
		C195.6,524.7,191.7,525.2,187.9,525.8z"/>
	<path class="st5" d="M213,522.4c0.1-0.3,0.3-0.5,0.6-0.4C213.4,522.1,213.2,522.3,213,522.4z"/>
	<path class="st7" d="M458.3,542.6c0.2-0.2,0.3-0.3,0.5-0.5C458.6,542.3,458.4,542.5,458.3,542.6z"/>
	<path class="st7" d="M458.8,542.1c0.1-0.2,0.3-0.3,0.4-0.5C459,541.8,458.9,541.9,458.8,542.1z"/>
	<g>
		
			<linearGradient id="SVGID_1_" gradientUnits="userSpaceOnUse" x1="485.3331" y1="254.05" x2="516.1417" y2="254.05" gradientTransform="matrix(1 0 0 -1 0 700)">
			<stop  offset="0" style="stop-color:#FFFFFF"/>
			<stop  offset="1" style="stop-color:#88B65D"/>
		</linearGradient>
		<path class="st8" d="M485.3,448.8c0.1,0.6,0.8,0.7,1.3,0.9c2.1,0.8,4.3,1.6,6.4,2.5c5.1,2.1,10.1,4.1,15.2,6.2
			c3-8.2,5.8-16.4,7.9-24.9c-9.7,5.2-19.5,10.1-29.7,14.3C486,448,485.2,448,485.3,448.8z"/>
		
			<linearGradient id="SVGID_2_" gradientUnits="userSpaceOnUse" x1="59.6508" y1="460.0764" x2="527.4999" y2="460.0764" gradientTransform="matrix(1 0 0 -1 0 700)">
			<stop  offset="0" style="stop-color:#FFFFFF"/>
			<stop  offset="1" style="stop-color:#88B65D"/>
		</linearGradient>
		<path class="st9" d="M526.6,322.3c-0.7-13.9-2.6-27.7-5.3-41.3c-4.9-24.6-12.5-48.3-23.6-70.8c-6.2-12.7-13.3-24.8-21.3-36.3
			c-3-4.3-6.1-8.6-9.5-12.7c-0.3-0.5-0.6-0.9-0.9-1.4c-12.5-16-26.5-30.6-42.4-43.3c-3.9-3.1-7.6-6.3-12-8.7
			c-5.1-4.1-10.7-7.4-16.4-10.7c-7.3-4.1-14.7-8.1-22.5-11c-18.4-8-37.7-12.1-57.5-14.3c-0.5-0.1-1-0.2-1.2,0.4
			c-3.7-0.9-7.4-1-11.1-0.9c-10.7,0-21.5-0.4-32.1,1c-2.7,0.3-5.2,1.4-7.9,1.4c-5.5,0.1-10.9,1.3-16.2,2.9l0,0
			c-0.5,0.1-0.9,0.1-1.4,0.2c-0.2,0.1-0.4,0.2-0.6,0.3c-0.3,0-0.6,0.1-0.9,0.1c-0.3,0.4-0.7,0.4-1.1,0.3c-0.6,0.1-1.3,0.2-1.9,0.3
			c-11.1,2.7-21.6,6.8-31.9,11.6c-7.1,3.3-14.1,6.8-20.6,11.2c-1.9,1.2-3.9,2.3-5.8,3.5c-10.8,7.2-20.9,15.3-30.4,24.1
			c-6.3,5.8-12.3,11.9-17.7,18.6c-1.9,2.2-3.9,4.4-5.8,6.6c-5.7,6.7-11.1,13.7-16.1,20.9c-4.9,7-9.2,14.3-13.5,21.6
			c-10,17.4-35.2,18-39.2,44c-1.7,3,11.7,14.6,11.3,15.5c-9.8,24.9-6.7,33.7-8.1,59c-1.2,21.6-2.6,37.9,0.6,70.6
			c0.2,1.7,1.5,16.3,2.2,16.7c0.7,0.4,13.1-4.6,14.7-5.4c3-1.5,6.3-2.2,9.5-3.1c10.5-3,21.2-4.9,32-6.4c4.6-0.7,9.3-1.1,13.9-1.8
			c2.4-0.6,4.9-0.2,7.4-0.6c10.4-1.4,20.9-1.5,31.4-2.3c5.1-0.4,10.2-0.4,15.3-0.6c-6.1-14.2-7.8-29.3-8.4-44.5
			c-0.9-23.1,0.7-46.1,3.3-69c1.3-11.5,2.7-23.1,4.4-34.5c0.1-0.6,0.1-1.3,0.1-1.9c0-0.7-0.2-1.4,0.4-1.9c0.1-0.6,0.2-1.3,0.2-1.9
			c-0.2,0-0.3-0.1-0.4-0.1c0.1,0,0.3,0.1,0.4,0.1c0.9-5,1.8-10.1,2.6-15.1c0.2-1.2,0.7-1.6,1.8-1.6c2,0.1,4,0.1,6,0
			c1.5-0.1,1.9,0.4,1.7,1.9c-1.3,14.4-2.2,28.9-2.6,43.4c-0.4,16.2-0.8,32.4-0.4,48.5c0.3,13.8,0.7,27.5,1.3,41.3
			c0.1,2.5,0.3,5,0.4,7.4c0.2,2.6,3.5,6.3,5.7,6.4c2.1,0.1,4.1-2.5,4.4-5.7c0.3-2.8,0.3-5.6,0.5-8.4c1.1-23,2.2-45.9,3.2-68.9
			c0.9-20.1,1.8-40.2,2.7-60.2c0.3-5.8,0.3-5.7,6.1-5.8c1.8,0,2.4,0.4,2.4,2.4c0.2,14.3,0.5,28.7,0.7,43c0.3,22.6,0.6,45.2,1,67.8
			c0.1,9.6,0.3,19.2,0.5,28.8c0.1,2.7,1.7,4.6,3.6,6.2c1.1,0.9,2.5,0.8,3.5-0.3c1.7-1.8,3-3.7,3.1-6.3c0.3-14.4,0.6-28.8,1-43.2
			c0.3-15,0.7-30,1-44.9c0.3-16.3,0.7-32.5,1-48.8c0.1-4.5,0-4.5,4.5-4.7c0.3,0,0.6-0.1,1-0.1c1.9-0.1,2.3,0.9,2.4,2.7
			c0.8,18.2,1.6,36.5,2.5,54.7c1.2,24.9,2.5,49.9,3.7,74.8c0.2,3.3,0.3,6.6,0.5,9.8c0.1,2.4,1.3,4.3,2.9,5.9c1.3,1.3,2.6,1,3.7-0.4
			c1.4-1.8,2.4-3.8,2.5-6.1c0.6-13.6,1.4-27.2,1.8-40.8c0.5-18.4,0.5-36.8,0.1-55.3c-0.3-14.3-1.2-28.6-1.8-42.9
			c0-0.8-0.9-2.4,1-2.2c1.5,0.2,3.8-1.3,4.4,1.7c1.2,5.8,2.6,11.5,3.8,17.3c4.2,20.1,6.8,40.4,8.1,60.9c1,17.4,0.8,34.7-0.7,52.1
			c-0.9,11-2.2,22-4.1,32.9c-0.7,3.9-2.1,7.7-3.1,11.6c-0.2,0.6-0.5,1-1.1,1c4.4,0.9,8.8,1.8,13.2,2.7c5.5,1.2,11,2.5,16.5,3.5
			c3.7,0.7,7.3,2.1,11.1,2.3c2.4,0.6,4.7,1.3,7.1,1.9c7.6,1.8,15.1,3.6,22.7,5.4c5.6,1.4,11.2,2.8,16.8,4.2c1-4.8,3-9.4,4.5-14
			c2.9-8.8,5.9-17.6,8.9-26.4c0.2-0.6,0.4-1.2,0.1-1.9c-0.4-0.1-0.7-0.2-1-0.3c-0.3-0.2-0.5-0.4-0.6-0.6s-0.2-0.5-0.3-0.8
			c0,0.3,0.1,0.5,0.3,0.8c0.1,0.2,0.3,0.4,0.6,0.6c0.3,0.2,0.6,0.3,1,0.3c0.3-0.5,0.8-1,0.9-1.6c1.7-6.1,4.1-12.1,6-18.1
			c3.2-9.8,6.6-19.5,9.7-29.3c1.9-6,4.1-12,6.3-18c0.8-2.2,1.7-1.6,2.9-0.8c1.9,1.3,3.1,3.1,4,5.2c1.6,3.4,1.6,7.1,2.4,10.7
			c0.9,1.3,0.5,2.8,0.4,4.2c-0.1,3.7,0.6,7.5-0.4,11.2c-0.3,6.2-2.4,12.3-0.6,18.6c1.1,3.7,2,7.4,5.3,9.8c1.1,0.9,2.3,1.5,3.9,1.5
			c3.8-0.2,7-1.6,9.4-4.7c1.3-1.8,2.7-3.5,4.1-5.2c5.4-6.5,11.3-12.4,18.8-16.5c3.7-2,7.7-3,11.8-3.9c-0.2,0-0.5,0-0.7-0.1
			c-0.3-0.2-0.2-0.4,0.1-0.4c1.6,0.1,3.2-0.3,4.8,0.2c0.6,0.9,0.1,1.7-0.2,2.4c-8.4,18.5-16.8,37.1-25.2,55.6
			c-2.1,4.8-4.6,9.4-6.3,14.4c14.7-7.5,29.1-15.4,42.9-24.5c3.2-1.5,6-3.6,8.9-5.5c11.5-7.3,22.4-15.4,33.5-23.4
			c3.7-2.6,7.4-5.1,10.6-8.4C527.3,333.6,526.9,328,526.6,322.3z M247,76.5c0.1,0,0.2,0,0.2,0S247.1,76.5,247,76.5z M467.6,256.4
			c-0.3,4.7-0.7,9.4-1,14.1c-0.6,9.1-0.8,18.2-1.1,27.3c0.3,2.9,0,5.7-0.8,8.9c0-4.2,0-7.9,0-11.6c-0.1-2.7-0.2-5.4-0.3-8
			c-1.3-3.1-0.6-6.3-0.8-9.5c-0.1-5.4-0.7-10.8-1.8-16.1c-0.2-0.8-0.1-1.8,0-2.6c0.2-2.6-1.4-5-1.1-7.7c0.1-0.7-0.4-1.1-1.2-1
			c-6.6,0.9-8-3.9-7.9-9.1c0-1.3,0.6-2.5,0.2-4.2c-10.3,7.5-19.9,15.5-29.8,23.2c3.6-3.7,7.1-7.4,10.7-11.1
			c12.4-12.9,23.7-26.8,34.5-41c0.3-0.4,0.6-1,0.9-1.4c2.1-2.2,3.2-5.3,5.9-7.6c-0.8,7.5-2.2,14.4-2.6,21.5l0,0
			c-1.3,5.5-1.2,11.2-1.9,16.8C468.6,243.5,468,250,467.6,256.4z"/>
		
			<linearGradient id="SVGID_3_" gradientUnits="userSpaceOnUse" x1="250.9" y1="140.7" x2="330.4839" y2="140.7" gradientTransform="matrix(1 0 0 -1 0 700)">
			<stop  offset="0" style="stop-color:#FFFFFF"/>
			<stop  offset="1" style="stop-color:#88B65D"/>
		</linearGradient>
		<path class="st10" d="M303.5,503.6c-4.5,1.2-9,2.4-13.5,3.5s-9.1,2.1-13.6,3.2c-3.4,0.8-6.8,1.7-10.2,2.4
			c-3.7,0.8-7.4,1.7-11.2,2.3c-1.4,0.2-2.8,0.4-4.1,1.1c0.4,8.1,0.8,16.3,1.3,24.4c0.8,15.1,1.9,30.2,3.2,45.2
			c0.9,10.4,1.9,20.7,2.7,31.1c0.1,1.9,0.9,2.4,2.5,2.6c9.3,1.3,18.6,2.2,27.9,2.5c0.2-0.6,0.5-1.2,0.7-1.8
			c4.3-12.7,8.5-25.4,12.8-38.2c6.6-19.6,13.2-39.2,19.7-58.8c2.9-8.8,5.8-17.6,8.7-26.4c-3.3,0.2-6.3,1.4-9.5,2.2
			C315.1,500.6,309.3,502.1,303.5,503.6z"/>
		
			<linearGradient id="SVGID_4_" gradientUnits="userSpaceOnUse" x1="121.5" y1="138.2481" x2="213.0305" y2="138.2481" gradientTransform="matrix(1 0 0 -1 0 700)">
			<stop  offset="0" style="stop-color:#FFFFFF"/>
			<stop  offset="1" style="stop-color:#88B65D"/>
		</linearGradient>
		<path class="st11" d="M199.4,524.1c-3.8,0.6-7.6,1.1-11.4,1.7l0,0c-3.7,0.5-7.5,1.1-11.2,1.5c-3.8,0.3-7.5,1-11.2,1.6
			c-3.6,0.5-7.4,0.2-11,1.5c-1,0.4-2.2,0.2-3.3,0.2c-3.3,0.1-6.6,0.7-9.8,1.4s-6.6,0.3-9.8,1.4c-3.7,1.3-6.8-1.6-10.2-2.7
			c0.2,0.3,0.3,0.7,0.6,1c14.1,18,29.8,34.4,48,48.3c4.8,3.7,9.5,7.5,14.9,10.3c0.9-0.6,1.3-1.3,1.5-2.1c-0.2,0.8-0.6,1.5-1.5,2.1
			c5.7,4.1,11.8,7.3,18,10.5c1.1,0.6,1.5,0.3,1.7-0.8c0.4-2.5,0.8-5.1,1.2-7.6c1.7-11.3,3-22.7,4.2-34.1c1.2-11.9,2.5-23.9,3.1-35.9
			c-1.7,0.1-3.3,0.4-5,0.5C205.1,523.1,202.3,523.7,199.4,524.1z"/>
		
			<linearGradient id="SVGID_5_" gradientUnits="userSpaceOnUse" x1="333.1" y1="158.0457" x2="497.6" y2="158.0457" gradientTransform="matrix(1 0 0 -1 0 700)">
			<stop  offset="0" style="stop-color:#FFFFFF"/>
			<stop  offset="1" style="stop-color:#88B65D"/>
		</linearGradient>
		<path class="st12" d="M478.3,478.6c-3.9-1.2-7.7-2.4-11.7-3.4c-3.3-0.8-6.3-2.4-9.8-2.4l0,0c-0.5,0-1.1,0.1-1.5-0.5
			c-3.3-1.8-7.1-2.3-10.7-3.2c-2.8-0.7-5.5-1.7-8.4-2c-2.9-0.4-5.7-0.9-8.5-1.8c0.3,1.6-0.2,2.6-2,3.1c-4.8,1.4-9.6,3.1-14.4,4.6
			c0.5,2,0.6,4,0.6,6.1c0-2-0.1-4.1-0.6-6.1c-4.9,1.6-9.8,3.1-14.8,4.7c0,0.2,0,0.5-0.1,0.7c-9.3,20.5-18.6,41-27.8,61.6
			c-2.4,5.4-5.2,10.7-7.2,16.4c-2.2,3.6-3.6,7.5-5.3,11.4c-7.7,16.9-15.3,33.9-23,50.8c2.3,0.1,4.5-0.7,6.8-1.2
			c7.7-1.6,15.1-3.9,22.5-6.5c3.5-1,6.8-2.4,10.1-3.7c14.2-5.8,27.5-13.3,39.9-22.3c17.2-11.9,32.2-26.3,45.8-42.2
			c0.2-0.2,0.3-0.3,0.5-0.5l0,0c0.1-0.2,0.3-0.3,0.4-0.5c0.4-0.5,0.7-0.9,1.1-1.4c0.4-0.4,0.9-0.7,1.2-1.2
			c13.1-16.3,24.7-33.5,34.2-52.2c0.4-0.9,0.6-2.1,2-2c-3.5-1.1-7-2.2-10.4-3.3C484.2,480.6,481.3,479.6,478.3,478.6z M412.1,479.1
			c0,0.8,0,1.6,0,2.5C412.1,480.8,412.1,479.9,412.1,479.1z"/>
		
			<linearGradient id="SVGID_6_" gradientUnits="userSpaceOnUse" x1="86.5" y1="221.3324" x2="217.3" y2="221.3324" gradientTransform="matrix(1 0 0 -1 0 700)">
			<stop  offset="0" style="stop-color:#FFFFFF"/>
			<stop  offset="1" style="stop-color:#88B65D"/>
		</linearGradient>
		<path class="st13" d="M188.9,452.7c-4.9-0.5-9.7,0.8-14.5,0.7c-5.1-0.1-9.9,1.4-15,1.2c-0.2,0-0.5,0-0.7,0.1
			c-3.4,1.1-7,1-10.4,1.7c-2.8,0.6-5.8,0.6-8.4,1.9c-4.5-0.1-8.7,1.5-13,2.2c-2.8,0.5-5.7,1.1-8.5,2c-2.9,1-5.9,1.5-8.8,2.5
			c-3.8,1.2-7.6,2.4-11.4,3.5c-3.9,1.1-7.6,2.8-11.7,3.5c5,11.1,10.7,21.9,16.8,32.5c0.6,0.4,1.2,0.2,1.8,0.2
			c12.1-0.8,24.2-2,36.2-3.7c15.8-1.9,31.5-4.5,47.1-7.7c9-1.8,18-3.9,27-6.1c0.6-11.2,1.2-22.4,1.9-33.6c-2.5-0.1-5-0.6-7.5-0.7
			C202.8,452.5,195.8,452.7,188.9,452.7z"/>
	</g>
	<path class="st1" d="M86.4,472.1c5,11.1,10.7,21.9,16.8,32.5c-16.9,2-33.9,0.8-50.8,1.1c-0.3,0-0.6-0.1-0.9-0.2
		c-0.6-6.6,3.3-11.5,6.9-16.2c6.3-8.4,15.2-12.9,24.8-16.2C84.3,472.7,85.3,472.4,86.4,472.1z"/>
	<path class="st1" d="M215.4,487.2c0.6-11.2,1.2-22.4,1.9-33.6c2.5-1.4,5.3-0.7,8-0.8c7.6-0.2,15.2-0.1,22.7-0.1
		c1.4,0.4,1.6,1.3,1.6,2.7c0.1,7.4,0.2,14.8,0.3,22.2c-4,1.2-7.9,2.3-11.9,3.5c-2.8,0.8-5.7,1.6-8.5,2.3c-2.9,0.8-5.8,1.2-8.6,2.3
		C219.1,486.4,217.1,486.1,215.4,487.2z"/>
	<path class="st0" d="M249.9,477.6c-0.1-7.4-0.3-14.8-0.3-22.2c0-1.3-0.2-2.3-1.6-2.7c13.9,0,27.8-0.6,41.6,0.3
		c9.2,0.6,18.3,0.1,27.4,0.8c-8.2,3.6-16.5,6.7-24.9,9.8c-13.7,5.1-27.5,9.6-41.4,14C250.4,477.6,250.2,477.6,249.9,477.6z"/>
	<path class="st7" d="M456.8,472.8c-0.5,0-1.1,0.1-1.5-0.5C455.9,472.4,456.5,472.3,456.8,472.8z"/>
	<path class="st5" d="M189.7,229.4c0.1,0.7,0.1,1.3-0.4,1.9C189.4,230.7,189.2,230,189.7,229.4z"/>
	<path class="st14" d="M406.4,314.1c0.9,1.3,0.5,2.8,0.4,4.2c-0.1,3.7,0.6,7.5-0.4,11.2C406.4,324.3,406.4,319.2,406.4,314.1z"/>
	<path class="st15" d="M459.1,329c-0.2,0-0.5,0-0.7-0.1c-0.3-0.2-0.2-0.4,0.1-0.4c1.6,0.1,3.2-0.3,4.8,0.2
		C462,328.8,460.6,328.9,459.1,329z"/>
	<path class="st4" d="M468,206.4c2.1-2.2,3.2-5.3,5.9-7.6c-0.8,7.5-2.2,14.4-2.6,21.5c-1.3,5.5-1.2,11.2-1.9,16.8
		c-0.8,6.4-1.4,12.8-1.8,19.3c-0.3,4.7-0.7,9.4-1,14.1c-0.6,9.1-0.8,18.2-1.1,27.3c-1-0.7-0.1-1.9-0.8-2.7c-0.1-2.7-0.2-5.4-0.3-8
		c-0.1-3.2-0.2-6.4-0.8-9.5c-0.1-5.4-0.7-10.8-1.8-16.1c-0.2-0.8-0.1-1.8,0-2.6c0.2-2.6-1.4-5-1.1-7.7c0.1-0.7-0.4-1.1-1.2-1
		c-6.6,0.9-8-3.9-7.9-9.1c0-1.3,0.6-2.5,0.2-4.2c-10.3,7.5-19.9,15.5-29.8,23.2c3.6-3.7,7.1-7.4,10.7-11.1
		c12.4-12.9,23.7-26.8,34.5-41C467.5,207.4,467.7,206.8,468,206.4z"/>
	<path class="st16" d="M464.6,295.1c0.7,0.8-0.3,2,0.8,2.7c0.3,2.9,0,5.7-0.8,8.9C464.6,302.5,464.6,298.8,464.6,295.1z"/>
	<path class="st15" d="M463.6,277.5c0.6,3.2,0.6,6.3,0.8,9.5C463.1,284,463.7,280.7,463.6,277.5z"/>
	<path class="st5" d="M1.7,290.6"/>
	<path class="st1" d="M75.4,250.6c-4,11.8-6.5,23.9-8.7,36.1c-4.4,24.6-5.5,49.5-4.7,74.4c0.4,13.1,1.7,26.2,3.8,39.2
		c0.2,1.4,0,2.1-1.4,2.7c-13.2,5.7-26,12.3-38,20.2c-0.3,0.2-0.6,0.2-1,0.4c-1.8-9.3-3.4-18.6-4.4-28c-1.8-17.3-2.7-34.7-2.4-52.1
		c0.6-47.2,8.8-92.9,27.5-136.5c13.4-31.3,31.4-59.6,53.7-85.4c19-22,40.3-41.4,64.8-57c19.5-12.4,40.3-21.7,62.7-27.7
		c16.1-4.4,32.4-7.3,49.1-8.3c16.1-0.9,32.2-0.8,48.2,1.1c46.8,5.7,88.3,23.7,124.6,53.8c35.3,29.3,63.1,64.5,83.9,105.4
		c13,25.6,22.2,52.5,28.1,80.6c0.1,0.5,0.3,0.9,0.4,1.4c0,0.3,0,0.6,0,1c2.3,11,0.6,21.6-3.8,31.8c-4.9,11.3-12.8,20.4-21.7,28.7
		c-2.7,2.5-5.4,5.1-8.6,7c-0.3-5.7-0.7-11.3-1-17c-0.7-13.9-2.6-27.7-5.3-41.3c-4.9-24.6-12.5-48.3-23.6-70.8
		c-6.2-12.7-13.3-24.8-21.3-36.3c-3-4.3-6.1-8.6-9.5-12.7c-0.3-0.5-0.6-0.9-0.9-1.4c-12.5-16-26.5-30.6-42.4-43.3
		c-3.9-3.1-7.6-6.3-12-8.7c-5.1-4.1-10.7-7.4-16.4-10.7c-7.3-4.1-14.7-8.1-22.5-11c-18.4-8-37.7-12.1-57.5-14.3
		c-0.5-0.1-1-0.2-1.2,0.4c-3.7-0.9-7.4-1-11.1-0.9c-10.7,0-21.5-0.4-32.1,1c-2.7,0.3-5.2,1.4-7.9,1.4c-5.5,0.1-10.9,1.3-16.2,2.9
		c-0.5,0.1-0.9,0.1-1.4,0.2c-0.2,0.1-0.4,0.2-0.6,0.3c-0.3,0-0.6,0.1-0.9,0.1c-0.4-0.1-0.8,0-1.1,0.3c-0.6,0.1-1.3,0.2-1.9,0.3
		c-11.1,2.7-21.6,6.8-31.9,11.6c-7.1,3.3-14.1,6.8-20.6,11.2c-1.9,1.2-3.9,2.3-5.8,3.5c-10.8,7.2-20.9,15.3-30.4,24.1
		c-6.3,5.8-12.3,11.9-17.7,18.6c-1.9,2.2-3.9,4.4-5.8,6.6c-5.7,6.7-11.1,13.7-16.1,20.9c-4.9,7-9.2,14.3-13.5,21.6
		C89,213.2,81.4,231.5,75.4,250.6z"/>
</g>
<g>
	<g>
		<path class="st1" d="M919.3,481.1v23.2c0,75.3-13,170.6-137.9,170.6c-113.3,0-135.5-74.7-135.5-169.1V187.3
			C645.9,88.7,689.6,28,782.7,28c112.8,0,133.8,76.9,133.8,162v26.7h-84.9v-35.3c0-45.2-9-76.4-49.4-76.4c-39,0-50.3,29-50.3,77.3
			v330.1c0,50.3,10.5,86.3,51.8,86.3c40.9,0,50.1-34,50.1-86v-31.5h85.5V481.1z"/>
		<path class="st1" d="M1203.1,371.4h-139.5v217.1h159.7l-10.9,77.6H979.2V36.9h231.7v78.2h-147.3v178.7h139.5V371.4z"/>
		<path class="st1" d="M1535.2,481.1v23.2c0,75.3-13,170.6-137.9,170.6c-113.3,0-135.5-74.7-135.5-169.1V187.3
			c0-98.6,43.7-159.3,136.8-159.3c112.8,0,133.8,76.9,133.8,162v26.7h-84.9v-35.3c0-45.2-9-76.4-49.4-76.4c-39,0-50.3,29-50.3,77.3
			v330.1c0,50.3,10.5,86.3,51.8,86.3c40.9,0,50.1-34,50.1-86v-31.5h85.5V481.1z"/>
		<path class="st1" d="M1670.6,484.1l-25.4,182h-85.7L1661.7,37h119.5l106.2,629h-88.2l-28-182h-100.6V484.1z M1760.9,406.5
			c-17.6-120.2-32.2-224-38.9-290.2h-3.2c-2.5,50.5-23,188.1-37.4,290.2H1760.9z"/>
		<path class="st1" d="M1940.5,666V36.9h98.7c28.8,100.4,109.1,419.1,117.3,460h1.2c-4.1-80.4-4.7-168.9-4.7-272v-188h78.4V666
			h-95.1c-25.6-93.2-112-438.8-120.7-475.2h-0.9c4.4,76,4.9,167.7,4.9,281V666H1940.5z"/>
		<path class="st1" d="M2543.2,371.4h-139.5v217.1h159.7l-10.9,77.6h-233.2V36.9H2551v78.2h-147.3v178.7h139.5V371.4z"/>
	</g>
</g>
</svg>
