<?xml version="1.0" encoding="utf-8"?>
<!-- Generator: Adobe Illustrator 25.2.1, SVG Export Plug-In . SVG Version: 6.00 Build 0)  -->
<svg version="1.1" id="Camada_1" xmlns="http://www.w3.org/2000/svg" xmlns:xlink="http://www.w3.org/1999/xlink" x="0px" y="0px"
	 viewBox="0 0 800 800" style="enable-background:new 0 0 800 800;" xml:space="preserve">
<style type="text/css">
	.st0{display:none;}
	.st1{display:inline;}
	.st2{fill:#10582E;}
	.st3{fill:#0F632F;}
	.st4{fill:url(#SVGID_1_);}
	.st5{fill:#13532B;}
	.st6{fill:#C01A1A;}
	.st7{fill:#FFFFFF;}
	.st8{fill:#1D1D39;}
	.st9{fill:#F6E53D;}
	.st10{fill:#CDE0AB;}
	.st11{fill:#FBE921;}
	.st12{fill:#201E43;}
	.st13{fill:#C41A18;}
	.st14{fill:#DEE9C8;}
	.st15{fill:#A0C861;}
	.st16{fill:url(#SVGID_2_);}
	.st17{fill:url(#SVGID_3_);}
	.st18{fill:url(#SVGID_4_);}
	.st19{fill:url(#SVGID_5_);}
	.st20{fill:url(#SVGID_6_);}
	.st21{fill:url(#SVGID_7_);}
	.st22{fill:#C0D996;}
	.st23{fill:#B4D281;}
	.st24{fill:#7F8679;}
</style>
<g id="LOGOCECANE" class="st0">
	<g class="st1">
		<path class="st2" d="M357.5,456.3c4.7,10.9,11.1,20.2,18,34c0.4,0.8-48-2.2-49.7-1.8c0,0-1.6-2.1-1.3-2.9
			C333,460.8,357.5,456.3,357.5,456.3z"/>
		<path class="st3" d="M191.3,471.6c5.6,12.5,12,24.5,18.8,36.3c-18.9,2.2-37.9,0.8-56.8,1.2c-0.3,0-0.7-0.1-1-0.2
			c-0.7-7.4,3.7-12.8,7.7-18.2c7-9.4,17-14.4,27.8-18.1C188.9,472.3,190.1,472,191.3,471.6z"/>
		<g>
			
				<linearGradient id="SVGID_1_" gradientUnits="userSpaceOnUse" x1="169.0884" y1="445.5" x2="608.2335" y2="445.5" gradientTransform="matrix(1 0 0 -1 0 802)">
				<stop  offset="0" style="stop-color:#FFFFFF"/>
				<stop  offset="1" style="stop-color:#90BD59"/>
			</linearGradient>
			<path class="st4" d="M608.1,356.4c-3.6,88.5-27.9,143.7-71.3,191.4c-40.3,44.3-86.6,63.9-137.2,68.9
				c-30.9,3.1-75.6-12.4-103.2-24.4c-28.6-12.5-68.6-56.2-98.3-106.1c-19.7-33-30.7-84.8-28.8-129.8c2.4-56.2,4.4-95.9,30.6-136.4
				c14.9-23.1,35.5-54.7,59.4-75.3c31.8-27.4,66.8-49,130.4-48.8c70.1,0.1,119.9,30,157,78.3c17.3,22.5,33.6,47.5,43.3,74.9
				C606.5,296.4,608.9,334.1,608.1,356.4z"/>
			<path class="st2" d="M382.3,55.4c114.5,0,168.2,67.1,166,64.4c-1.7-2.2,39.4,37,60.3,78.5s22.4,50.5,31.5,86.2
				c11.5,45.3-32,64.1-32,64.7s-3.9-66.4-21-107.2c-24.4-58.2-62.1-91.5-64.1-93c-8.8-6.4-50.5-55.6-140.7-53
				s-133.6,56.4-162.1,91.6s-45.3,98-46.5,109.4c-1.3,12.5-8.6,44.8-1.2,111.2c0,0-16.5,6.2-38.4,20.4c0,0-20.6-96.4,16.6-195.4
				c9.3-24.9,44.7-97.2,108.8-139.1S382.3,55.4,382.3,55.4z"/>
			<path class="st2" d="M393.1,660.1c126.1,1.6,200.7-106.3,223.9-159c0,0-32.7-18.2-38-14.8c-2.2,1.4-54,124.8-185.9,130.3
				c-25.3,1.1-81.8-12.1-110.8-32.7c-30.3-21.5-40.7-35.9-62.8-61.1c0,0-50.3,1.3-50.3-2.4c0,0,27.1,54.7,79.6,94
				c4.5,3.3,28.2,20.8,53.9,30.6c7.4,2.8,6.8,2.6,14.2,5C333.9,655.8,371.7,659.8,393.1,660.1z"/>
			<path class="st2" d="M644.1,405.9c0.7,19-14.2,69.1-18.2,74.6c0,0-32.8-19.4-36-19.8c0,0,6.3-17.5,7.1-22.9L644.1,405.9z"/>
			<path class="st5" d="M346.6,515.5c1.6,1.6,0.5,31.8,7.3,96.5c0,0-14.2-2.9-27.7-7.5c-16.9-5.7-21.1-7.8-23.3-9.1
				c0,0,7.7-51.8,8.6-74.5L346.6,515.5z"/>
			<path class="st5" d="M345.7,455.5c0.6,0.3,0,19.5,0,23.7c0,0-29.9,8.9-31.9,8.3c0,0,1.3-30.7,1.7-32
				C315.4,455.5,345.2,455.3,345.7,455.5z"/>
			<path class="st5" d="M368.4,394.7c-2.1-1.5-56.6-8.2-79-6.3c0,0-19-24.1,2.6-160.7h9c-0.7,14.3-2.7,73.2-2.9,77
				c-0.1,2.1,1,50.8,1.5,54.7c0,0-0.2,1.8,0.3,3.6c0.4,1.4,1.3,2.7,1.8,3.3c0.7,0.8,2.6,1.9,3.5,1.8c0.3,0,1.3-0.1,1.9-0.5
				c1-0.7,2.8-3.7,2.8-6.6c0-1.9,1-27.7,1-27.7l2.1-49.4c0,0,2.4-53.3,2.6-56.1c0,0,5.9,0,7.8,0c0.7,0,0.7,57.1,0.7,57.1
				s1.5,76.2,1.6,77.7s0.2,1.2,0.2,1.4c0,0.2,0.5,0.8,0.5,0.9s0.6,0.7,0.6,0.8s0.4,0.5,0.5,0.7s0.6,0.6,0.8,0.8
				c0.2,0.1,0.6,0.5,0.8,0.6c0.3,0.1,0.8,0.3,1.1,0.2c0.3,0,0.6,0,0.8-0.1c0.2-0.1,0.6-0.1,0.8-0.2c0.2-0.1,1-0.4,1.1-0.6
				c0,0,0.3-0.2,0.6-0.4c0.3-0.2,0.9-1.1,1-1.3c0.3-0.7,0.4-0.5,0.6-1.8c0.1-0.7,0.1-7.5,0.1-8.2s2.4-124.9,3-127.5h6.9
				c0.6,2.3,6.3,128.3,6.3,132.1s0.1,2.3,0.1,2.4s0.2,1.8,0.3,1.9c0,0,0.2,0.7,0.5,1c0,0,0.2,0.3,0.8,1c0.2,0.2,0.1,0.2,0.6,0.8
				c0.2,0.3,0.2,0.3,0.3,0.4c0.1,0.1,0.6,0.3,0.7,0.4c0,0,0.3,0.1,0.9,0.1s1,0,1.1,0c0,0,0.5,0,0.8-0.2c0,0,0.3-0.1,0.6-0.3
				c0.4-0.2,0.4-0.3,0.8-0.7c0.2-0.2,0.5-0.5,0.7-0.8c0.3-0.5,0.3-0.4,0.5-1.1c0.1-0.4,0.3-1.3,0.4-2.3c0.1-0.9,0.2-5.3,0.2-5.3
				s3-93.3-0.5-129.4h4.5c0.4,1.1,7.5,34.4,9.3,49s3.8,46.1,2.6,62.9C372.5,394.7,368.4,394.7,368.4,394.7z"/>
			<path class="st6" d="M382.2,616.3c2.2,0.6,10.7,0.5,19.6-0.3c10.4-0.8,18.9-2.4,22.7-3.2c0,0,56.2-124.5,59.9-134l-62.2,17.9
				C382.2,616.3,382.2,616.3,382.2,616.3z"/>
			<path class="st6" d="M517.1,406.9c9-19.4,20.1-43.9,30.9-67.9c0,0-14.2,0.5-23.2,8.9c-3.3,3.1-6.1,5.2-14.6,16
				c-5.5,7.1-13.6,2.7-15.8-2.4c-0.7-1.6-1.4-5.2-1.7-8.4c-0.2-1.6,0.5-20.8,0.7-22.7s0.6-11.3-1.7-15.8c-2.3-4.5-6.4-6-6.4-6
				c-1.2,3.9-29.5,90.8-35,105c0,0,33.2,9.5,34.1,9.5S517.1,406.9,517.1,406.9z"/>
			<path class="st6" d="M557.1,216.1c-3.1,17.1-6.5,47.2-8.2,101.9c0,0-0.7-24.7-1.8-34.7s-1.8-18.3-2-19.1c0,0-2.8,0.7-4.9,0
				c-2.2-0.7-4.6-1.4-3.5-12.9c0,0-28.4,22.3-33.9,28l30.4-33.4L557.1,216.1z"/>
			<path class="st7" d="M512.6,467.7c-28.2,14.8-154.5,45.7-156.5,46.1c-74.3,15-134.4,11.9-134.4,11.9c25.6-12.3,22.2-6.6,67.1-15
				c10.1-1.9,41.3-31.4,117.9-41.4c4.8-0.6,31.3-11.1,31.3-11.1S510.1,463.5,512.6,467.7"/>
			<path class="st7" d="M646.5,296.4c3,0.3,15.5-3.9,31.9,0c15.9,3.8,37.9,29.9,26.8,48.3c-29.9,50-111.2,95.2-118.1,98.5
				c-23.3,11.1-23.2,9.3-32.8,12.2c0,0-48.9-17.5-63.6-20.5c0,0,85.2-37,135.9-84.9c13.7-13,15.2-20.7,17.6-25.8
				C650.5,310.6,646.5,296.4,646.5,296.4z"/>
			<path class="st8" d="M414.8,454.2c-71.3,29.7-131.6,41.1-141.6,43c-44.9,8.4-85.3,8.4-114.3,8.4l-2,11c8.4,9.2,51,15.6,164.2-3.9
				c2.1-0.4,74.8-6.9,178-48.4"/>
			<path class="st8" d="M640.1,284.5c6.5,0.6,64.2,8.8,58.7,48.3c-5.1,36.1-93.4,91.1-149,112.1c0,0-50.7-18.9-65.4-21.9
				c0,0,85.2-37,135.9-84.9c13.7-13,15.2-20.7,17.6-25.8C644.1,298.7,640.1,284.5,640.1,284.5z"/>
			<path class="st7" d="M154.3,507.3c-41.6-23.8-43.2-47.9-40.2-60.1c1.5-6,10.2-15.2,36-28.9c17.7-9.4,47.2-19.3,63.5-22.2
				c79.5-14.2,126.7-6.7,166,0.5c2.8,0.5,60.4,13.5,97.9,24.9c9.2,2.8,23.8,5.1,35.1,9.8c20.8,8.6,53.3,17,77.3,29.4
				c16.6,8.6,32.5,16.9,34,18.2c2.8,2.3,13.2,13,2.2,19.2c0,0-76.7-51-243.7-51c-51.4,0-44.4-0.4-69.5-0.9
				c-73.4-1.4-99,11.5-100.8,11.8C143.2,469.7,157,508.9,154.3,507.3z"/>
			<path class="st9" d="M156.9,516.6c-41.6-23.8-43.2-47.9-40.2-60.1c2.4-9.6,34.5-38.2,79.5-50.7c47-13,145.9-12.9,185.9,0
				c2.7,0.9,81.5,17.2,120.7,29.1c30.2,9.2,118.3,41.6,123,45.5c2.8,2.3,13.7,20.6,2.8,26.9c0,0-76.7-51-243.7-51
				c-51.4,0-44.4-0.4-69.5-0.9c-73.4-1.4-99,11.5-100.8,11.8C145.7,478.9,159.6,518.1,156.9,516.6z"/>
			<path class="st2" d="M393.1,616.6"/>
		</g>
	</g>
</g>
<g id="Camada_2_1_">
	<path class="st10" d="M316.3,67.8c-0.3,0.4-0.7,0.5-1.2,0.4C315.4,67.7,315.8,67.7,316.3,67.8z"/>
	<path class="st10" d="M317.9,67.3c-0.2,0.1-0.4,0.2-0.6,0.3C317.5,67.5,317.7,67.4,317.9,67.3z"/>
	<g>
		
			<image style="overflow:visible;enable-background:new    ;" width="3208" height="3300" xlink:href="../../../../project/static/assets/img/icons/14F14023.png"  transform="matrix(0.2397 0 0 0.2397 9.3531 -23.0333)">
		</image>
	</g>
	<g>
		<path class="st3" d="M645,542.1c-12.7,27.2-28.5,52.5-47.4,75.9c-24.8,30.7-53.4,57.1-87.6,77.2c-25.1,14.7-51.9,25.2-80.5,31
			c-21.5,4.4-43.3,6.3-65.2,5.7c-42.8-1.3-83.3-11.3-121.1-31.9c-28.2-15.3-52.9-35-75-58.2c-20.9-21.9-39.1-45.9-54.2-72.2
			c-0.3-0.5-0.6-1.1-0.8-1.7c19.6,4.5,39.4,4.4,59.3,4c2.4,0.8,4.7,1.8,6.8,3.4c0.2,0.4,0.4,0.8,0.6,1.2
			c15.8,20.2,33.3,38.5,53.7,54.1c5.4,4.1,10.6,8.4,16.7,11.5c6.3,4.5,13.2,8.1,20.1,11.8c1.2,0.7,1.7,0.4,1.9-0.9
			c0.4-2.8,0.9-5.7,1.3-8.5c1.9-12.7,3.3-25.4,4.7-38.1c1.4-13.4,2.8-26.7,3.4-40.2l0,0c0.2-0.2,0.5-0.3,0.7-0.5
			c8.8-1.1,17.6-2.8,26.4-4.2c5.1-0.8,10.1-2.3,15.3-2.4c0.5,9.1,0.9,18.2,1.4,27.3c0.9,16.9,2.1,33.8,3.5,50.6
			c1,11.6,2.1,23.2,3,34.8c0.2,2.1,1,2.7,2.8,2.9c10.4,1.5,20.8,2.4,31.2,2.9c0.2,1.6,1.4,1.1,2.3,1c8.4-0.2,16.8,0.3,25.3-0.8
			c5.8-0.8,11.6-1.8,17.4-2.7c1.7-0.2,3.6-0.4,5.2-1.5c2.6,0.1,5.1-0.8,7.6-1.3c8.6-1.7,16.9-4.4,25.2-7.3c3.9-1.1,7.6-2.7,11.3-4.2
			c15.9-6.5,30.7-14.9,44.7-24.9c19.3-13.3,36-29.5,51.2-47.2c0.2-0.2,0.3-0.4,0.5-0.6l0,0c0.2-0.2,0.3-0.4,0.5-0.5
			c0.4-0.5,0.8-1,1.2-1.6c0.4-0.4,1-0.8,1.3-1.3c14.7-18.2,27.7-37.5,38.2-58.4c0.5-1,0.6-2.4,2.3-2.2c4.9,1.8,9.9,3.5,14.8,5.3
			C625.4,533.2,635.5,537,645,542.1z"/>
		<path class="st11" d="M645,542.1c-9.5-5.1-19.6-8.9-29.7-12.7c-4.9-1.8-9.9-3.5-14.8-5.3c-3.9-1.2-7.8-2.5-11.7-3.7
			c-3.3-1.1-6.6-2.2-10-3.2c-4.3-1.3-8.7-2.7-13.1-3.8c-3.6-0.9-7.1-2.6-10.9-2.7l0,0c-0.4-0.6-1-0.5-1.6-0.5
			c-3.7-2-7.9-2.5-11.9-3.6c-3.1-0.8-6.2-1.9-9.4-2.3s-6.4-1-9.5-2.1c-3.6,0.1-7-1.2-10.5-1.6c-3.8-0.4-7.5-2-11.4-1.7
			c-1.5-0.4-2.9-1-4.4-1.2c-9.6-1.2-19.2-2.4-28.8-3.5c-15.8-1.7-31.7-2.9-47.6-3.9c-7.1-0.5-14.3-0.8-21.4-1.1
			c-10.2-0.7-20.4-0.2-30.7-0.8c-15.4-1-31-0.3-46.5-0.3c-8.5,0-17-0.1-25.5,0.1c-3,0.1-6.1-0.7-8.9,0.9c-2.8-0.1-5.6-0.6-8.4-0.8
			c-7.8-0.4-15.6-0.1-23.4-0.1c-5.5-0.5-10.9,0.9-16.3,0.8c-5.7-0.1-11.1,1.6-16.8,1.3c-0.3,0-0.5,0-0.8,0.1
			c-3.8,1.2-7.8,1.2-11.7,1.9c-3.2,0.6-6.5,0.6-9.4,2.1c-5-0.1-9.7,1.7-14.6,2.5c-3.2,0.5-6.4,1.2-9.5,2.2c-3.2,1.1-6.6,1.7-9.8,2.8
			c-4.2,1.4-8.5,2.7-12.8,3.9c-4.4,1.2-8.5,3.2-13,3.9c-1.2,0.4-2.4,0.7-3.6,1.1c-10.8,3.7-20.8,8.7-27.8,18.1
			c-4,5.4-8.4,10.7-7.7,18.2c-0.7,0.4-1.6,0.5-1.7,1.5c-0.7,4.2-1.7,8.4-1.4,12.7c-3.8-1.5-6.9-4.1-10.1-6.4
			c-10.9-7.7-21-16.2-28.9-27c-6.4-8.7-10.3-18.3-9.1-29.4c0.9-8.1,4.7-15,9.7-21.2c6.3-7.8,14-13.8,22.6-19
			c12.2-7.4,24.7-14,37.8-19.5c7.8-3.3,15.8-6.2,23.9-8.6c6.7-2,13.5-3.8,20.6-4.7c5.4-0.7,10.7-1.4,16.1-2.1c9-1.2,18-2.5,27-3.3
			c9.9-0.9,19.8-1.5,29.7-2c13.1-0.7,26.2-0.5,39.2-0.4c10.7,0.1,21.4,0.9,32.1,1.8c5.9,0.5,11.9,1.2,17.7,2.1
			c5.2,0.9,10.5,1.6,15.7,2.7c2.9,0.6,5.9,1.2,8.9,1.5c4.8,0.6,9.5,1.8,14.3,2.8c2.3,0.5,4.5,0.7,6.8,1.2c6.9,1.4,13.8,2.9,20.7,4.2
			c4.2,0.8,8.3,1.7,12.4,2.6c3.9,0.9,7.9,1.6,11.8,2.7c3.6,1,7.4,1.6,11.1,2.5c3.6,0.9,7.1,1.9,10.7,2.8c3.5,0.9,7,1.6,10.5,2.5
			c4.9,1.3,9.8,2.6,14.7,3.9c3.2,0.9,6.5,1.7,9.7,2.5s6.5,1.6,9.7,2.5c3.4,0.9,6.7,1.9,10.1,2.9c4.3,1.3,8.5,2.7,12.8,3.9
			c4,1.2,8.1,2.3,12.1,3.6c4,1.2,8,2.6,11.9,3.9c3.7,1.2,7.5,2.4,11.2,3.7c5.8,2,11.5,4,17.3,6c5.2,1.9,10.5,3.8,15.7,5.8
			c6.8,2.6,13.6,5.3,20.5,8c6.1,2.4,12.2,4.7,18.2,7.1c6.8,2.7,13.6,5.5,20.4,8.2c5.2,2,10.4,3.9,15.7,5.8c1.2,1.4,3,1.7,4.7,2
			c0.5,0.4,1,0.7,1.6,1.1c4.2,5.5,8.2,11.1,9.8,17.9c1.2,5-0.8,10.5-5.1,13.2c-1.1,0.7-2.2,0.6-3.2-0.1
			C653.2,546.3,649,544.3,645,542.1z"/>
		<path class="st12" d="M634,361.2c3.6-2.1,6.6-5,9.7-7.8c9.9-9.3,18.9-19.4,24.3-32.1c4.9-11.4,6.8-23.2,4.3-35.6
			c-0.1-0.3,0-0.7,0-1.1c5.8,0.2,11.3,1.8,16.8,3.2c13.1,3.3,25.7,7.8,36.5,16.1c13.5,10.3,19,23.9,15.9,40.6
			c-1.4,7.6-5.6,14.1-9.9,20.4c-9,13-20.4,23.8-32.5,33.8c-28.4,23.5-59.8,42.4-92.7,58.7c-12.2,6.1-24.7,11.6-37.4,16.7
			c-0.5,0.2-1.1,0.5-1.6,0.8c0.4,1.4,1.9,1.7,3,3.5c-27.8-10.9-55.6-19.9-83.4-28.7c13.3-6.4,26.9-12.2,39.9-19.3
			c16.4-8.4,32.6-17.3,48-27.5c3.5-1.7,6.7-4.1,10-6.2c12.9-8.2,25.1-17.3,37.5-26.2C626.2,367.7,630.5,364.9,634,361.2z"/>
		<path class="st3" d="M256.1,408.3c-6.8-15.9-8.8-32.8-9.4-49.8c-1-25.9,0.8-51.6,3.7-77.2c1.4-12.9,3-25.8,4.9-38.7
			c0.1-0.7,0.1-1.4,0.1-2.1c0.5-0.6,0.5-1.4,0.4-2.1c0.1-0.7,0.2-1.4,0.3-2.1c1-5.6,2-11.2,2.9-16.9c0.2-1.4,0.7-1.8,2.1-1.8
			c2.2,0.1,4.5,0.1,6.7,0c1.7-0.1,2.1,0.4,2,2.1c-1.5,16.2-2.4,32.3-2.9,48.6c-0.5,18.1-0.9,36.2-0.4,54.3
			c0.4,15.4,0.8,30.8,1.5,46.2c0.1,2.8,0.3,5.5,0.5,8.3c0.2,2.9,3.9,7.1,6.3,7.2c2.3,0.1,4.6-2.8,5-6.4c0.3-3.1,0.4-6.3,0.5-9.4
			c1.2-25.7,2.4-51.4,3.6-77.1c1-22.5,2-44.9,3-67.4c0.3-6.5,0.4-6.4,6.8-6.5c2.1,0,2.7,0.5,2.7,2.6c0.2,16,0.5,32.1,0.8,48.1
			c0.4,25.3,0.7,50.6,1.1,75.8c0.2,10.8,0.3,21.5,0.6,32.3c0.1,3,1.9,5.2,4,7c1.2,1,2.8,0.9,3.9-0.3c1.9-2,3.4-4.2,3.4-7.1
			c0.4-16.1,0.7-32.3,1.1-48.4c0.4-16.8,0.7-33.5,1.1-50.3c0.4-18.2,0.7-36.4,1.1-54.6c0.1-5.1,0-5.1,5-5.2c0.4,0,0.7-0.1,1.1-0.1
			c2.1-0.1,2.6,1.1,2.6,3c0.9,20.4,1.8,40.8,2.8,61.2c1.4,27.9,2.8,55.8,4.2,83.7c0.2,3.7,0.3,7.3,0.5,11c0.1,2.6,1.5,4.8,3.2,6.6
			c1.4,1.5,3,1.1,4.1-0.4c1.6-2,2.7-4.2,2.8-6.8c0.7-15.2,1.6-30.4,2-45.6c0.5-20.6,0.6-41.2,0.1-61.8c-0.4-16-1.4-32-2-48.1
			c0-0.9-1-2.7,1.1-2.5c1.7,0.2,4.3-1.5,4.9,1.9c1.3,6.5,2.9,12.9,4.2,19.4c4.7,22.5,7.6,45.2,9,68.1c1.2,19.4,0.9,38.9-0.7,58.3
			c-1,12.3-2.5,24.6-4.6,36.8c-0.7,4.4-2.3,8.6-3.5,12.9c-0.2,0.7-0.5,1.1-1.3,1.2c-20.4-4-41.1-6.1-61.8-7.2
			C276.9,408.4,266.5,408.8,256.1,408.3z"/>
		<path class="st12" d="M398.2,489.3c7.1,0.4,14.3,0.7,21.4,1.1c15.9,1,31.8,2.2,47.6,3.9c9.6,1,19.2,2.3,28.8,3.5
			c1.5,0.2,2.9,0.8,4.4,1.2c-0.7,0.9-1.8,1.1-2.8,1.5c-20.2,9.3-41.3,15.9-62.4,22.5c-27.2,8.5-54.7,15.9-82.5,22.1
			c-26.5,5.9-53.3,10.9-80.1,15.1c-15.9,2.4-31.9,4.9-47.9,6.6c-12.7,1.4-25.5,2.7-38.2,3.7c-4.6,0.4-9.3,0.1-13.8,1.3
			c-19.9,0.4-39.8,0.5-59.3-4c-5.3-1.7-10.6-3.5-15.4-6.6c-0.2-4.3,0.7-8.5,1.4-12.7c0.2-1,1.1-1.1,1.7-1.5c0.3,0.1,0.7,0.2,1,0.2
			c18.9-0.3,37.9,1.1,56.8-1.2c0.6,0.4,1.3,0.3,2.1,0.2c13.5-0.9,27-2.3,40.5-4.1c17.7-2.1,35.3-5.1,52.8-8.7
			c10.1-2,20.2-4.3,30.2-6.9c1.9-1.2,4.2-0.9,6.3-1.7c3.1-1.2,6.4-1.7,9.6-2.5s6.4-1.7,9.5-2.6c4.4-1.3,8.9-2.6,13.3-3.9
			c0.3,0,0.5,0,0.8-0.1c15.6-4.9,31.1-10,46.3-15.7C379.7,496.7,389.1,493.3,398.2,489.3z"/>
		<path class="st13" d="M526.7,430.5c-13,7.1-26.6,12.9-39.9,19.3c-13.2-3.7-26.5-7.5-39.7-11.2c1.2-5.4,3.3-10.5,5-15.7
			c3.2-9.9,6.6-19.7,10-29.5c0.2-0.7,0.5-1.4,0.2-2.1c0.4-0.6,0.9-1.1,1.1-1.7c1.9-6.9,4.6-13.5,6.8-20.3
			c3.6-10.9,7.3-21.8,10.8-32.8c2.1-6.7,4.6-13.5,7-20.2c0.9-2.5,1.9-1.8,3.2-0.9c2.1,1.4,3.5,3.5,4.5,5.8c1.7,3.8,1.8,8,2.7,11.9
			c0,5.7,0,11.4,0,17.2c-0.4,6.9-2.7,13.8-0.6,20.8c1.2,4.1,2.3,8.3,6,11c1.2,1,2.6,1.7,4.3,1.6c4.3-0.2,7.9-1.8,10.5-5.3
			c1.5-2,3-3.9,4.6-5.8c6-7.2,12.6-13.9,21-18.5c4.2-2.3,8.7-3.4,13.2-4.4c1.6-0.1,3.2-0.2,4.8-0.2c0.7,1,0.1,1.9-0.3,2.7
			c-9.4,20.8-18.8,41.5-28.1,62.3C531.3,419.7,528.5,424.9,526.7,430.5z"/>
		<path class="st3" d="M655.2,518.1c-0.5-0.4-1-0.7-1.6-1.1c-1.3-1-2.6-2-4.1-2.6c-11.3-7.4-23.4-13.4-35.7-19
			c-0.6-0.3-1.1-0.6-1.6-0.9c3.4-9.1,6.5-18.4,8.8-27.9c19.6-10.7,37.8-23.4,56-37.3C673.2,460.2,666,489.6,655.2,518.1z"/>
		<path class="st14" d="M649.5,514.5c1.6,0.6,2.8,1.6,4.1,2.6c-1.7-0.3-3.4-0.6-4.7-2C649.2,514.8,649.4,514.7,649.5,514.5z"/>
		<path class="st13" d="M416.4,673.7c-1.5,1.1-3.5,1.3-5.2,1.5c-5.8,0.9-11.6,1.9-17.4,2.7c-8.5,1.2-16.8,0.6-25.3,0.8
			c-0.8,0-2.1,0.6-2.3-1c0.3-0.7,0.6-1.3,0.8-2c4.8-14.2,9.6-28.5,14.3-42.7c7.4-21.9,14.7-43.9,22.1-65.8
			c3.3-9.8,6.5-19.7,9.8-29.5c0.8-0.3,1.6-0.8,2.4-1c11.4-3.2,22.9-6.2,34.3-9.5c12.5-3.6,25-7.4,37.4-11c0,0.3,0,0.5-0.2,0.8
			c-10.4,23-20.8,45.9-31.1,68.9c-2.7,6.1-5.9,12-8.1,18.3c-2.4,4-4.1,8.4-6,12.7C433.6,635.8,425,654.7,416.4,673.7z"/>
		<path class="st7" d="M253.9,569.9c-4.2,0.6-8.4,1.3-12.6,1.7c-4.2,0.4-8.4,1.1-12.5,1.7c-4.1,0.6-8.3,0.2-12.3,1.7
			c-1.1,0.4-2.5,0.2-3.7,0.2c-3.7,0.1-7.4,0.8-11,1.5c-3.6,0.8-7.3,0.3-10.9,1.6c-4.2,1.4-7.6-1.8-11.4-3.1c-2-1.6-4.3-2.6-6.8-3.4
			c4.5-1.3,9.2-1,13.8-1.3c12.8-1,25.5-2.4,38.2-3.7c16-1.7,32-4.1,47.9-6.6c26.9-4.1,53.6-9.1,80.1-15.1
			c27.8-6.2,55.3-13.6,82.5-22.1c21.1-6.6,42.2-13.2,62.4-22.5c1-0.4,2.1-0.7,2.8-1.5c3.9-0.3,7.6,1.2,11.4,1.7
			c3.5,0.4,6.9,1.6,10.5,1.6c0.3,1.8-0.2,2.9-2.2,3.5c-5.4,1.6-10.8,3.4-16.2,5.2c-5.5,1.7-11,3.5-16.5,5.2
			c-12.5,3.7-24.9,7.5-37.4,11c-11.4,3.3-22.9,6.3-34.3,9.5c-0.8,0.2-1.6,0.7-2.4,1c-3.7,0.2-7.1,1.6-10.6,2.5
			c-6.5,1.6-13.1,3.3-19.6,5c-5.1,1.3-10.1,2.7-15.2,3.9c-5.1,1.3-10.2,2.4-15.3,3.6c-3.8,0.9-7.6,1.9-11.4,2.7
			c-4.1,0.9-8.3,1.9-12.5,2.6c-1.6,0.3-3.2,0.5-4.6,1.2c-5.2,0-10.2,1.5-15.3,2.4c-8.8,1.4-17.6,3.1-26.4,4.2
			c-0.4,0-0.6,0.1-0.7,0.5l0,0c-1.9,0.1-3.7,0.4-5.5,0.6c-3.2,0.2-6.4,0.9-9.7,1.3C262.4,568.7,258.1,569.3,253.9,569.9z"/>
		<path class="st14" d="M281.9,566.2c0.1-0.4,0.3-0.5,0.7-0.5C282.3,565.8,282.1,566,281.9,566.2z"/>
		<path class="st15" d="M556.4,588.8c0.2-0.2,0.3-0.4,0.5-0.6C556.7,588.4,556.6,588.6,556.4,588.8z"/>
		<path class="st15" d="M556.9,588.2c0.2-0.2,0.3-0.4,0.5-0.5C557.2,587.8,557.1,588,556.9,588.2z"/>
		<g>
			
				<linearGradient id="SVGID_2_" gradientUnits="userSpaceOnUse" x1="586.6715" y1="321.45" x2="621.1" y2="321.45" gradientTransform="matrix(1 0 0 -1 0 802)">
				<stop  offset="0" style="stop-color:#FFFFFF"/>
				<stop  offset="1" style="stop-color:#8AB75D"/>
			</linearGradient>
			<path class="st16" d="M586.7,483.8c0.1,0.7,0.9,0.8,1.4,1c2.4,0.9,4.8,1.8,7.2,2.8c5.7,2.3,11.3,4.6,17,6.9
				c3.4-9.1,6.5-18.4,8.8-27.9c-10.8,5.8-21.8,11.3-33.2,16C587.4,482.9,586.5,482.9,586.7,483.8z"/>
			
				<linearGradient id="SVGID_3_" gradientUnits="userSpaceOnUse" x1="110.3335" y1="552.2742" x2="634.1001" y2="552.2742" gradientTransform="matrix(1 0 0 -1 0 802)">
				<stop  offset="0" style="stop-color:#FFFFFF"/>
				<stop  offset="1" style="stop-color:#8AB75D"/>
			</linearGradient>
			<path class="st17" d="M632.9,342.2c-0.8-15.6-3-31-6-46.2c-5.4-27.5-14-54-26.4-79.3c-6.9-14.2-14.8-27.7-23.8-40.7
				c-3.4-4.9-6.8-9.7-10.6-14.2c-0.3-0.5-0.7-1.1-1.1-1.5c-14-17.9-29.7-34.2-47.4-48.5c-4.3-3.5-8.5-7.1-13.4-9.8
				c-5.7-4.6-12-8.3-18.4-11.9c-8.1-4.6-16.4-9-25.2-12.3c-20.5-9-42.2-13.6-64.4-16c-0.5-0.1-1.1-0.2-1.4,0.4
				c-4.1-1-8.3-1.1-12.5-1.1c-12,0-24-0.4-36,1.1c-3,0.4-5.9,1.5-8.9,1.6c-6.2,0.1-12.2,1.5-18.1,3.2l0,0c-0.5,0.1-1,0.1-1.5,0.2
				c-0.2,0.1-0.4,0.2-0.6,0.3c-0.3,0-0.7,0.1-1,0.1c-0.3,0.4-0.7,0.5-1.2,0.4c-0.7,0.1-1.4,0.2-2.1,0.4c-12.4,3-24.2,7.6-35.7,12.9
				c-7.9,3.7-15.8,7.6-23,12.5c-2.2,1.3-4.4,2.5-6.5,3.9c-12.1,8-23.4,17.1-34,27c-7,6.5-13.8,13.3-19.8,20.8
				c-2.2,2.5-4.3,4.9-6.5,7.4c-6.4,7.5-12.4,15.3-18,23.4c-5.4,7.8-10.3,16-15.1,24.2c-11.2,19.4-39.4,20.1-43.8,49.2
				c-1.9,3.4,13.1,16.3,12.7,17.4c-11,27.8-7.4,37.7-9,66c-1.3,24.2-2.9,42.4,0.7,79c0.2,1.9,1.7,18.3,2.4,18.7
				c0.7,0.4,14.6-5.2,16.4-6.1c3.4-1.6,7.1-2.4,10.7-3.4c11.7-3.3,23.7-5.5,35.8-7.2c5.2-0.8,10.4-1.2,15.6-2.1
				c2.7-0.7,5.5-0.3,8.2-0.6c11.7-1.5,23.4-1.7,35.1-2.6c5.7-0.4,11.4-0.4,17.1-0.7c-6.8-15.9-8.8-32.8-9.4-49.8
				c-1-25.9,0.8-51.6,3.7-77.2c1.4-12.9,3-25.8,4.9-38.7c0.1-0.7,0.1-1.4,0.1-2.1c0-0.7-0.2-1.5,0.4-2.1c0.1-0.7,0.2-1.4,0.3-2.1
				c-0.2,0-0.3-0.1-0.5-0.1c0.1,0.1,0.3,0.1,0.5,0.1c1-5.6,2-11.2,2.9-16.9c0.2-1.4,0.7-1.8,2.1-1.8c2.2,0.1,4.5,0.1,6.7,0
				c1.7-0.1,2.1,0.4,2,2.1c-1.5,16.2-2.4,32.3-2.9,48.6c-0.5,18.1-0.9,36.2-0.4,54.3c0.4,15.4,0.8,30.8,1.5,46.2
				c0.1,2.8,0.3,5.5,0.5,8.3c0.2,2.9,3.9,7.1,6.3,7.2c2.3,0.1,4.6-2.8,5-6.4c0.3-3.1,0.4-6.3,0.5-9.4c1.2-25.7,2.4-51.4,3.6-77.1
				c1-22.5,2-44.9,3-67.4c0.3-6.5,0.4-6.4,6.8-6.5c2.1,0,2.7,0.5,2.7,2.6c0.2,16,0.5,32.1,0.8,48.1c0.4,25.3,0.7,50.6,1.1,75.8
				c0.2,10.8,0.3,21.5,0.6,32.3c0.1,3,1.9,5.2,4,7c1.2,1,2.8,0.9,3.9-0.3c1.9-2,3.4-4.2,3.4-7.1c0.4-16.1,0.7-32.3,1.1-48.4
				c0.4-16.8,0.7-33.5,1.1-50.3c0.4-18.2,0.7-36.4,1.1-54.6c0.1-5.1,0-5.1,5-5.2c0.4,0,0.7-0.1,1.1-0.1c2.1-0.1,2.6,1.1,2.6,3
				c0.9,20.4,1.8,40.8,2.8,61.2c1.4,27.9,2.8,55.8,4.2,83.7c0.2,3.7,0.3,7.3,0.5,11c0.1,2.6,1.5,4.8,3.2,6.6c1.4,1.5,3,1.1,4.1-0.4
				c1.6-2,2.7-4.2,2.8-6.8c0.7-15.2,1.6-30.4,2-45.6c0.5-20.6,0.6-41.2,0.1-61.8c-0.4-16-1.4-32-2-48.1c0-0.9-1-2.7,1.1-2.5
				c1.7,0.2,4.3-1.5,4.9,1.9c1.3,6.5,2.9,12.9,4.2,19.4c4.7,22.5,7.6,45.2,9,68.1c1.2,19.4,0.9,38.9-0.7,58.3
				c-1,12.3-2.5,24.6-4.6,36.8c-0.7,4.4-2.3,8.6-3.5,12.9c-0.2,0.7-0.5,1.1-1.3,1.2c4.9,1,9.9,2,14.8,3c6.2,1.3,12.3,2.8,18.5,3.9
				c4.2,0.8,8.2,2.3,12.5,2.6c2.6,0.7,5.3,1.5,7.9,2.1c8.5,2,16.9,4,25.4,6.1c6.3,1.5,12.6,3.2,18.8,4.7c1.2-5.4,3.3-10.5,5-15.7
				c3.2-9.9,6.6-19.7,10-29.5c0.2-0.7,0.5-1.4,0.2-2.1c-0.4-0.1-0.8-0.2-1.1-0.4c-0.3-0.2-0.5-0.4-0.7-0.7c-0.2-0.3-0.3-0.6-0.3-0.9
				c0,0.3,0.1,0.6,0.3,0.9c0.2,0.3,0.4,0.5,0.7,0.7c0.3,0.2,0.6,0.3,1.1,0.4c0.4-0.6,0.9-1.1,1.1-1.7c1.9-6.9,4.6-13.5,6.8-20.3
				c3.6-10.9,7.3-21.8,10.8-32.8c2.1-6.7,4.6-13.5,7-20.2c0.9-2.5,1.9-1.8,3.2-0.9c2.1,1.4,3.5,3.5,4.5,5.8c1.7,3.8,1.8,8,2.7,11.9
				c1,1.5,0.5,3.1,0.5,4.7c-0.1,4.2,0.6,8.4-0.4,12.5c-0.4,6.9-2.7,13.8-0.6,20.8c1.2,4.1,2.3,8.3,6,11c1.2,1,2.6,1.7,4.3,1.6
				c4.3-0.2,7.9-1.8,10.5-5.3c1.5-2,3-3.9,4.6-5.8c6-7.2,12.6-13.9,21-18.5c4.2-2.3,8.7-3.4,13.2-4.4c-0.3,0-0.6,0-0.8-0.1
				c-0.3-0.2-0.2-0.4,0.2-0.4c1.8,0.1,3.6-0.3,5.4,0.3c0.7,1,0.1,1.9-0.3,2.7c-9.4,20.8-18.8,41.5-28.1,62.3
				c-2.4,5.3-5.2,10.5-7,16.1c16.4-8.4,32.6-17.3,48-27.5c3.5-1.7,6.7-4.1,10-6.2c12.9-8.2,25.1-17.3,37.5-26.2
				c4.1-2.9,8.3-5.7,11.8-9.4C633.6,354.9,633.2,348.6,632.9,342.2z M319.9,67.1c0.1,0,0.2,0,0.3,0C320.1,67.1,320,67.1,319.9,67.1z
				 M566.8,268.5c-0.4,5.3-0.8,10.5-1.2,15.8c-0.6,10.2-0.9,20.4-1.3,30.5c0.3,3.2,0,6.4-0.9,10c0-4.7,0-8.8,0-13
				c-0.1-3-0.2-6-0.3-9c-1.4-3.5-0.7-7.1-0.9-10.7c-0.1-6.1-0.8-12.1-2-18.1c-0.2-0.9-0.1-2,0-2.9c0.2-3-1.6-5.6-1.2-8.6
				c0.1-0.8-0.4-1.3-1.4-1.1c-7.4,1-9-4.3-8.9-10.2c0-1.4,0.7-2.8,0.2-4.7c-11.5,8.3-22.3,17.3-33.4,26c4-4.1,8-8.3,12-12.4
				c13.9-14.4,26.5-29.9,38.6-45.9c0.4-0.5,0.6-1.1,1-1.6c2.4-2.5,3.5-5.9,6.6-8.5c-0.9,8.3-2.4,16.1-2.9,24.1l0,0
				c-1.4,6.2-1.4,12.6-2.1,18.9C567.9,254.1,567.3,261.3,566.8,268.5z"/>
			
				<linearGradient id="SVGID_4_" gradientUnits="userSpaceOnUse" x1="324.2" y1="194.4" x2="413.2583" y2="194.4" gradientTransform="matrix(1 0 0 -1 0 802)">
				<stop  offset="0" style="stop-color:#FFFFFF"/>
				<stop  offset="1" style="stop-color:#8AB75D"/>
			</linearGradient>
			<path class="st18" d="M383.2,545.1c-5.1,1.3-10.1,2.7-15.2,3.9c-5.1,1.3-10.2,2.4-15.3,3.6c-3.8,0.9-7.6,1.9-11.4,2.7
				c-4.1,0.9-8.3,1.9-12.5,2.6c-1.6,0.3-3.2,0.5-4.6,1.2c0.5,9.1,0.9,18.2,1.4,27.3c0.9,16.9,2.1,33.8,3.5,50.6
				c1,11.6,2.1,23.2,3,34.8c0.2,2.1,1,2.7,2.8,2.9c10.4,1.5,20.8,2.4,31.2,2.9c0.3-0.7,0.6-1.3,0.8-2c4.8-14.2,9.6-28.5,14.3-42.7
				c7.4-21.9,14.7-43.9,22.1-65.8c3.3-9.8,6.5-19.7,9.8-29.5c-3.7,0.2-7.1,1.6-10.6,2.5C396.2,541.7,389.7,543.5,383.2,545.1z"/>
			
				<linearGradient id="SVGID_5_" gradientUnits="userSpaceOnUse" x1="179.5" y1="191.7662" x2="281.9" y2="191.7662" gradientTransform="matrix(1 0 0 -1 0 802)">
				<stop  offset="0" style="stop-color:#FFFFFF"/>
				<stop  offset="1" style="stop-color:#8AB75D"/>
			</linearGradient>
			<path class="st19" d="M266.7,568.1c-4.3,0.6-8.5,1.2-12.8,1.9l0,0c-4.2,0.6-8.4,1.3-12.6,1.7c-4.2,0.4-8.4,1.1-12.5,1.7
				c-4.1,0.6-8.3,0.2-12.3,1.7c-1.1,0.4-2.5,0.2-3.7,0.2c-3.7,0.1-7.4,0.8-11,1.5c-3.6,0.8-7.3,0.3-10.9,1.6
				c-4.2,1.4-7.6-1.8-11.4-3.1c0.2,0.4,0.4,0.8,0.6,1.2c15.8,20.2,33.3,38.5,53.7,54.1c5.4,4.1,10.6,8.4,16.7,11.5
				c1-0.6,1.4-1.5,1.6-2.4c-0.2,0.9-0.6,1.7-1.6,2.4c6.3,4.5,13.2,8.1,20.1,11.8c1.2,0.7,1.7,0.4,1.9-0.9c0.4-2.8,0.9-5.7,1.3-8.5
				c1.9-12.7,3.3-25.4,4.7-38.1c1.4-13.4,2.8-26.7,3.4-40.2c-1.9,0.1-3.7,0.4-5.5,0.6C273.1,567,269.9,567.6,266.7,568.1z"/>
			
				<linearGradient id="SVGID_6_" gradientUnits="userSpaceOnUse" x1="416.3999" y1="214.0961" x2="600.3999" y2="214.0961" gradientTransform="matrix(1 0 0 -1 0 802)">
				<stop  offset="0" style="stop-color:#FFFFFF"/>
				<stop  offset="1" style="stop-color:#8AB75D"/>
			</linearGradient>
			<path class="st20" d="M578.8,517.2c-4.3-1.3-8.7-2.7-13.1-3.8c-3.6-0.9-7.1-2.6-10.9-2.7l0,0c-0.6,0-1.2,0.1-1.6-0.5
				c-3.7-2-7.9-2.5-11.9-3.6c-3.1-0.8-6.2-1.9-9.4-2.3s-6.4-1-9.5-2.1c0.3,1.8-0.2,2.9-2.2,3.5c-5.4,1.6-10.8,3.4-16.2,5.2
				c0.6,2.2,0.7,4.5,0.7,6.8c0-2.3-0.1-4.5-0.7-6.8c-5.5,1.7-11,3.5-16.5,5.2c0,0.3,0,0.5-0.2,0.8c-10.4,23-20.8,45.9-31.1,68.9
				c-2.7,6.1-5.9,12-8.1,18.3c-2.4,4-4.1,8.4-6,12.7c-8.6,18.9-17.2,37.9-25.7,56.8c2.6,0.1,5.1-0.8,7.6-1.3
				c8.6-1.7,16.9-4.4,25.2-7.3c3.9-1.1,7.6-2.7,11.3-4.2c15.9-6.5,30.7-14.9,44.7-24.9c19.3-13.3,36-29.5,51.2-47.2
				c0.2-0.2,0.3-0.4,0.5-0.6l0,0c0.2-0.2,0.3-0.4,0.5-0.5c0.4-0.5,0.8-1,1.2-1.6c0.4-0.4,1-0.8,1.3-1.3
				c14.7-18.2,27.7-37.5,38.2-58.4c0.5-1,0.6-2.4,2.3-2.2c-3.9-1.2-7.8-2.5-11.7-3.7C585.4,519.3,582.1,518.2,578.8,517.2z
				 M504.7,517.7c0,0.9,0,1.8,0,2.7C504.7,519.5,504.7,518.6,504.7,517.7z"/>
			
				<linearGradient id="SVGID_7_" gradientUnits="userSpaceOnUse" x1="140.2" y1="284.8655" x2="286.7" y2="284.8655" gradientTransform="matrix(1 0 0 -1 0 802)">
				<stop  offset="0" style="stop-color:#FFFFFF"/>
				<stop  offset="1" style="stop-color:#8AB75D"/>
			</linearGradient>
			<path class="st21" d="M254.9,488.2c-5.5-0.5-10.9,0.9-16.3,0.8c-5.7-0.1-11.1,1.6-16.8,1.3c-0.3,0-0.5,0-0.8,0.1
				c-3.8,1.2-7.8,1.2-11.7,1.9c-3.2,0.6-6.5,0.6-9.4,2.1c-5-0.1-9.7,1.7-14.6,2.5c-3.2,0.5-6.4,1.2-9.5,2.2
				c-3.2,1.1-6.6,1.7-9.8,2.8c-4.2,1.4-8.5,2.7-12.8,3.9c-4.4,1.2-8.5,3.2-13,3.9c5.6,12.5,12,24.5,18.8,36.3
				c0.6,0.4,1.3,0.3,2.1,0.2c13.5-0.9,27-2.3,40.5-4.1c17.7-2.1,35.3-5.1,52.8-8.7c10.1-2,20.2-4.3,30.2-6.9
				c0.7-12.6,1.4-25.1,2.1-37.7c-2.8-0.1-5.6-0.6-8.4-0.8C270.5,487.9,262.7,488.2,254.9,488.2z"/>
		</g>
		<path class="st3" d="M140.2,509.8c5.6,12.5,12,24.5,18.8,36.3c-18.9,2.2-37.9,0.8-56.8,1.2c-0.3,0-0.7-0.1-1-0.2
			c-0.7-7.4,3.7-12.8,7.7-18.2c7-9.4,17-14.4,27.8-18.1C137.8,510.5,139,510.2,140.2,509.8z"/>
		<path class="st3" d="M284.5,526.7c0.7-12.6,1.4-25.1,2.1-37.7c2.8-1.6,6-0.8,8.9-0.9c8.5-0.2,17-0.1,25.5-0.1
			c1.6,0.4,1.8,1.5,1.8,3c0.1,8.3,0.2,16.6,0.4,24.9c-4.4,1.3-8.8,2.6-13.3,3.9c-3.2,0.9-6.3,1.8-9.5,2.6s-6.5,1.4-9.6,2.5
			C288.8,525.8,286.4,525.5,284.5,526.7z"/>
		<path class="st10" d="M323.2,516c-0.1-8.3-0.3-16.6-0.4-24.9c0-1.5-0.3-2.6-1.8-3c15.5,0,31.1-0.7,46.5,0.3
			c10.3,0.7,20.5,0.1,30.7,0.8c-9.1,4.1-18.5,7.5-27.9,10.9c-15.3,5.7-30.8,10.8-46.3,15.7C323.8,516,323.5,516,323.2,516z"/>
		<path class="st15" d="M554.8,510.7c-0.6,0-1.2,0.1-1.6-0.5C553.7,510.2,554.4,510,554.8,510.7z"/>
		<path class="st14" d="M255.9,238.3c0.1,0.8,0.1,1.5-0.4,2.1C255.4,239.7,255.2,238.9,255.9,238.3z"/>
		<path class="st22" d="M498.3,333.1c1,1.5,0.5,3.1,0.5,4.7c-0.1,4.2,0.6,8.4-0.4,12.5C498.3,344.5,498.3,338.8,498.3,333.1z"/>
		<path class="st23" d="M557.3,349.7c-0.3,0-0.6,0-0.8-0.1c-0.3-0.2-0.2-0.4,0.2-0.4c1.8,0.1,3.6-0.3,5.4,0.3
			C560.5,349.5,558.9,349.6,557.3,349.7z"/>
		<path class="st13" d="M567.2,212.5c2.4-2.5,3.5-5.9,6.6-8.5c-0.9,8.3-2.4,16.1-2.9,24.1c-1.4,6.2-1.4,12.6-2.1,18.9
			c-0.9,7.2-1.5,14.4-2,21.6c-0.4,5.3-0.8,10.5-1.2,15.8c-0.6,10.2-0.9,20.4-1.3,30.5c-1.2-0.8-0.1-2.1-0.9-3c-0.1-3-0.2-6-0.3-9
			c-0.1-3.6-0.2-7.1-0.9-10.7c-0.1-6.1-0.8-12.1-2-18.1c-0.2-0.9-0.1-2,0-2.9c0.2-3-1.6-5.6-1.2-8.6c0.1-0.8-0.4-1.3-1.4-1.1
			c-7.4,1-9-4.3-8.9-10.2c0-1.4,0.7-2.8,0.2-4.7c-11.5,8.3-22.3,17.3-33.4,26c4-4.1,8-8.3,12-12.4c13.9-14.4,26.5-29.9,38.6-45.9
			C566.7,213.6,566.9,213,567.2,212.5z"/>
		<path class="st24" d="M563.5,311.8c0.7,0.9-0.3,2.3,0.9,3c0.3,3.2,0,6.4-0.9,10C563.5,320.1,563.5,315.9,563.5,311.8z"/>
		<path class="st23" d="M562.3,292.1c0.6,3.5,0.7,7.1,0.9,10.7C561.8,299.3,562.5,295.7,562.3,292.1z"/>
		<path class="st14" d="M45.4,306.8"/>
		<path class="st3" d="M128,262c-4.4,13.2-7.3,26.7-9.7,40.4c-5,27.6-6.2,55.4-5.3,83.3c0.5,14.7,1.9,29.3,4.3,43.8
			c0.3,1.6,0.1,2.4-1.5,3.1c-14.8,6.4-29.1,13.8-42.6,22.6c-0.3,0.2-0.7,0.3-1.1,0.4c-2-10.5-3.8-20.9-4.9-31.3
			c-2-19.4-3-38.8-2.7-58.2c0.7-52.8,9.9-104,30.8-152.7c15-35,35.2-66.7,60.1-95.5c21.3-24.6,45.1-46.3,72.6-63.8
			c21.7-14,45-24.4,70-31.1c18-4.9,36.3-8.2,54.9-9.3c18-1,36-0.9,53.9,1.2c52.4,6.4,98.9,26.5,139.5,60.2
			c39.5,32.7,70.6,72.2,93.8,117.9c14.5,28.6,24.8,58.8,31.5,90.2c0.1,0.5,0.3,1,0.5,1.5c0,0.4,0,0.7,0,1.1
			c2.6,12.3,0.6,24.2-4.3,35.6c-5.4,12.7-14.4,22.8-24.3,32.1c-3,2.8-6,5.7-9.7,7.8c-0.4-6.3-0.8-12.7-1.1-19c-0.8-15.6-3-31-6-46.2
			c-5.4-27.5-14-54-26.4-79.3c-6.9-14.2-14.8-27.7-23.8-40.7c-3.4-4.9-6.8-9.7-10.6-14.2c-0.3-0.5-0.7-1.1-1.1-1.5
			c-14-17.9-29.7-34.2-47.4-48.5c-4.3-3.5-8.5-7.1-13.4-9.8c-5.7-4.6-12-8.3-18.4-11.9c-8.1-4.6-16.4-9-25.2-12.3
			c-20.5-9-42.2-13.6-64.4-16c-0.5-0.1-1.1-0.2-1.4,0.4c-4.1-1-8.3-1.1-12.5-1.1c-12,0-24-0.4-36,1.1c-3,0.4-5.9,1.5-8.9,1.6
			c-6.2,0.1-12.2,1.5-18.1,3.2c-0.5,0.1-1,0.1-1.5,0.2c-0.2,0.1-0.4,0.2-0.6,0.3c-0.3,0-0.7,0.1-1,0.1c-0.5-0.1-0.9-0.1-1.2,0.4
			c-0.7,0.1-1.4,0.2-2.1,0.4c-12.4,3-24.2,7.6-35.7,12.9c-7.9,3.7-15.8,7.6-23,12.5c-2.2,1.3-4.4,2.5-6.5,3.9
			c-12.1,8-23.4,17.1-34,27c-7,6.5-13.8,13.3-19.8,20.8c-2.2,2.5-4.3,4.9-6.5,7.4c-6.4,7.5-12.4,15.3-18,23.4
			c-5.4,7.8-10.3,16-15.1,24.2C143.2,220.1,134.6,240.6,128,262z"/>
	</g>
</g>
</svg>
